<?xml version="1.0" standalone="no"?>
<!DOCTYPE svg PUBLIC "-//W3C//DTD SVG 20010904//EN"
 "http://www.w3.org/TR/2001/REC-SVG-20010904/DTD/svg10.dtd">
<svg version="1.0" xmlns="http://www.w3.org/2000/svg"
 width="483.000000pt" height="106.000000pt" viewBox="0 0 483.000000 106.000000"
 preserveAspectRatio="xMidYMid meet">

<g transform="translate(0.000000,106.000000) scale(0.100000,-0.100000)"
fill="#000000" stroke="none">
<path d="M406 940 c-216 -38 -367 -250 -336 -472 39 -277 342 -433 597 -308
118 58 199 170 225 309 19 103 -19 241 -91 327 -89 109 -254 168 -395 144z
m284 -158 c42 -21 60 -53 60 -108 0 -46 -28 -90 -102 -162 l-45 -43 -7 42 c-6
40 -4 45 32 83 54 56 64 77 49 107 -9 17 -22 25 -45 27 -29 3 -41 -5 -102 -66
-72 -72 -84 -100 -58 -141 13 -22 5 -49 -18 -58 -37 -14 -75 70 -60 133 9 34
140 172 181 190 41 18 74 17 115 -4z m-134 -223 c8 -16 14 -46 14 -68 0 -35
-8 -50 -53 -103 -95 -112 -169 -147 -239 -114 -72 34 -90 123 -39 192 16 21
51 61 78 87 l50 48 1 -47 c2 -43 -2 -51 -43 -95 -45 -49 -54 -74 -35 -110 20
-36 65 -25 127 34 31 28 64 65 74 81 16 26 16 31 2 62 -15 30 -15 35 1 59 14
22 20 24 32 14 9 -7 22 -25 30 -40z"/>
<path d="M1540 751 l0 -120 -35 15 c-129 53 -274 -43 -292 -195 -16 -138 88
-263 223 -265 33 0 60 6 77 17 23 15 27 15 27 2 0 -12 14 -15 70 -15 l70 0 0
340 0 340 -70 0 -70 0 0 -119z m-41 -206 c55 -28 79 -131 46 -195 -43 -83
-145 -80 -181 6 -29 68 -12 141 42 183 31 25 55 26 93 6z"/>
<path d="M3090 530 l0 -340 70 0 70 0 0 160 c0 157 1 161 25 185 31 32 86 34
115 5 18 -18 20 -33 20 -185 l0 -165 71 0 71 0 -4 183 c-3 205 -12 236 -78
269 -61 31 -178 20 -207 -19 -11 -14 -13 7 -13 115 l0 132 -70 0 -70 0 0 -340z"/>
<path d="M4122 850 c-66 -28 -37 -130 38 -130 26 0 70 43 70 68 0 46 -61 81
-108 62z"/>
<path d="M1927 640 c-31 -17 -37 -17 -37 -5 0 12 -14 15 -65 15 l-65 0 0 -230
0 -230 65 0 65 0 0 140 c0 195 22 239 111 227 36 -5 40 -3 45 21 3 15 8 35 11
46 11 39 -68 49 -130 16z"/>
<path d="M2216 646 c-91 -34 -147 -109 -154 -207 -5 -72 11 -121 57 -172 130
-145 380 -83 420 104 24 108 -28 213 -129 264 -46 24 -145 29 -194 11z m133
-111 c16 -8 36 -30 45 -49 42 -89 -7 -186 -95 -186 -104 0 -144 152 -58 224
35 29 67 33 108 11z"/>
<path d="M2747 645 c-57 -21 -94 -51 -122 -100 -95 -161 21 -359 210 -359 62
0 134 26 166 60 l24 26 -45 38 -45 38 -28 -24 c-20 -17 -41 -24 -70 -24 -71 1
-107 44 -107 130 0 46 4 56 34 86 48 48 114 45 156 -7 15 -19 17 -18 60 26
l45 46 -30 25 c-63 51 -170 67 -248 39z"/>
<path d="M3718 646 c-37 -15 -98 -55 -98 -65 0 -3 22 -18 48 -32 43 -24 51
-25 73 -13 36 20 86 17 109 -6 11 -11 20 -24 20 -29 0 -5 -35 -10 -78 -13
-139 -8 -207 -68 -199 -175 6 -84 55 -123 157 -124 40 -1 69 4 85 15 30 20 35
20 35 1 0 -12 15 -15 71 -15 l71 0 -4 178 c-3 198 -12 228 -77 266 -43 25
-161 32 -213 12z m152 -286 c0 -44 -31 -70 -85 -70 -49 0 -72 23 -60 61 9 26
38 38 98 38 46 1 47 0 47 -29z"/>
<path d="M4476 635 c-44 -23 -46 -24 -46 -5 0 18 -7 20 -65 20 l-65 0 0 -230
0 -230 65 0 65 0 0 128 c1 146 10 200 41 225 33 26 83 22 108 -9 19 -24 21
-40 21 -185 l0 -159 71 0 71 0 -4 178 c-3 149 -6 183 -22 216 -37 74 -151 99
-240 51z"/>
<path d="M4090 420 l0 -230 70 0 70 0 0 230 0 230 -70 0 -70 0 0 -230z"/>
</g>
</svg>
